<svg id="Слой_1" data-name="Слой 1" xmlns="http://www.w3.org/2000/svg" viewBox="0 0 24 19.96"><title>twitter</title><g id="Page-1"><g id="_2017_Rad_card_web" data-name="2017_Rad_card_web"><g id="Group-23"><g id="twitter"><g id="Shape"><path d="M8.26,20A16,16,0,0,1,.51,17.88,1,1,0,0,1,1,16a10.57,10.57,0,0,0,4.88-1C-1.69,10.37,2,1.7,2.09,1.6a1,1,0,0,1,1.73-.17A9.64,9.64,0,0,0,11,5.52,5.48,5.48,0,0,1,20.13,1.4,9.89,9.89,0,0,0,22.42.19,1,1,0,0,1,24,1.25,8.71,8.71,0,0,1,22,5q0,0.24,0,.49c0,5.48-2.43,10.06-6.66,12.55A13.88,13.88,0,0,1,8.26,20ZM5,17.53a12.27,12.27,0,0,0,9.37-1.2C17.93,14.21,20,10.26,20,5.51a3.44,3.44,0,0,0-.06-0.64A1,1,0,0,1,20.22,4a6.74,6.74,0,0,0,.62-0.7l-0.69.23a1,1,0,0,1-1-.3A3.48,3.48,0,0,0,13,5.53v1a1,1,0,0,1-1,1A11.61,11.61,0,0,1,3.4,4c-0.6,2.55-.83,7.45,5,10a1,1,0,0,1,.16,1.74A12.61,12.61,0,0,1,5,17.53Z" transform="translate(0 0)" fill="#fff"/></g></g></g></g></g></svg>